<svg xmlns="http://www.w3.org/2000/svg" width="1200" height="800" viewBox="0 0 1200 800" role="img" aria-labelledby="title2">
  <title id="title2">Funding Allocation Overview</title>
  <rect width="1200" height="800" rx="32" fill="#111827" />
  <rect x="84" y="84" width="1032" height="340" rx="28" fill="#1f2937" />
  <rect x="120" y="120" width="180" height="180" rx="28" fill="#6366f1" />
  <circle cx="850" cy="250" r="120" fill="#eab308" />
  <circle cx="906" cy="250" r="80" fill="#2563eb" />
  <rect x="120" y="340" width="720" height="164" rx="20" fill="#111827" />
  <rect x="140" y="380" width="180" height="20" rx="10" fill="#38bdf8" />
  <rect x="140" y="420" width="240" height="20" rx="10" fill="#60a5fa" />
  <rect x="140" y="460" width="120" height="20" rx="10" fill="#fbbf24" />
  <rect x="540" y="380" width="460" height="20" rx="10" fill="#f97316" />
  <rect x="540" y="420" width="360" height="20" rx="10" fill="#22c55e" />
  <path d="M320 560 H620" stroke="#f8fafc" stroke-width="28" stroke-linecap="round" />
  <rect x="320" y="620" width="520" height="24" rx="12" fill="#9ca3af" />
  <text x="120" y="180" fill="#f8fafc" font-family="Inter, sans-serif" font-size="56" font-weight="700">Funding</text>
  <text x="120" y="720" fill="#cbd5e1" font-family="Inter, sans-serif" font-size="36">Budget, spend, and allocation</text>
</svg>